<svg xmlns="http://www.w3.org/2000/svg" width="18.728" height="22.496" viewBox="0 0 18.728 22.496">
  <g id="bishop" transform="translate(-3.894 0)">
    <path id="Path_67" data-name="Path 67" d="M22.408,8.85,13.77.212a.725.725,0,0,0-1.026,0L4.106,8.85a.726.726,0,0,0-.036.988L6.716,12.9a9.967,9.967,0,0,0-.33,1.717,2.416,2.416,0,0,0-.895,1.892A2.368,2.368,0,0,0,7.1,18.788a6.977,6.977,0,0,0,12.331-.009,2.369,2.369,0,0,0,1.585-2.268,2.418,2.418,0,0,0-.87-1.872,9.969,9.969,0,0,0-.338-1.757l2.63-3.046A.725.725,0,0,0,22.408,8.85ZM10.6,6.184A.484.484,0,0,1,11.08,5.7h1.048V4.571a.484.484,0,0,1,.484-.484H13.9a.484.484,0,0,1,.484.484V5.7h1.049a.484.484,0,0,1,.484.484V7.474a.484.484,0,0,1-.484.484H14.387V10.7a.484.484,0,0,1-.484.484H12.612a.484.484,0,0,1-.484-.484V7.958H11.08a.484.484,0,0,1-.484-.484Zm8.166,11.253a.714.714,0,0,1-.295-.066,5.514,5.514,0,0,1-10.4-.006.725.725,0,0,1-.315.072.932.932,0,0,1,0-1.849h.015a4.474,4.474,0,0,0,.425.607,5.624,5.624,0,0,1-.232-1.571,4.7,4.7,0,0,1,.1-.991H18.481a4.63,4.63,0,0,1,.1.991,5.624,5.624,0,0,1-.232,1.571,4.461,4.461,0,0,0,.425-.607.933.933,0,0,1-.016,1.847ZM11.7,15.247a.873.873,0,1,1-.873-.873A.875.875,0,0,1,11.7,15.247Zm2.48,2.212c0,.2-.4.361-.9.361s-.9-.161-.9-.361.4-.361.9-.361S14.175,17.259,14.175,17.459ZM16.6,15.247a.873.873,0,1,1-.873-.873A.875.875,0,0,1,16.6,15.247Z" transform="translate(0 0)" fill="#487cf9"/>
  </g>
</svg>
