<svg xmlns="http://www.w3.org/2000/svg" width="22.514" height="21.021" viewBox="0 0 22.514 21.021">
  <g id="conversation" transform="translate(0 -16.981)">
    <path id="Path_68" data-name="Path 68" d="M21.778,33.593a7.612,7.612,0,0,0,.736-3.289,7.724,7.724,0,0,0-7.358-7.686A7.721,7.721,0,0,0,0,24.676a7.612,7.612,0,0,0,.736,3.289L.013,31.582a.66.66,0,0,0,.775.776l3.662-.724a7.586,7.586,0,0,0,2.91.727,7.708,7.708,0,0,0,10.7,4.9c4.011.793,3.7.737,3.79.737a.66.66,0,0,0,.647-.789ZM4.841,30.357a.66.66,0,0,0-.428-.06L1.5,30.873,2.074,28a.659.659,0,0,0-.06-.43,6.308,6.308,0,0,1-.7-2.9,6.4,6.4,0,0,1,12.474-2,7.7,7.7,0,0,0-6.68,8.35A6.281,6.281,0,0,1,4.841,30.357Zm15.6,3.275.574,2.869L18.1,35.925a.66.66,0,0,0-.428.06,6.308,6.308,0,0,1-2.9.7,6.376,6.376,0,1,1,6.42-6.376,6.307,6.307,0,0,1-.7,2.9A.659.659,0,0,0,20.44,33.632Z" transform="translate(0)" fill="#bdc8d2"/>
  </g>
</svg>
