<svg xmlns="http://www.w3.org/2000/svg" xmlns:xlink="http://www.w3.org/1999/xlink" width="46" height="46" viewBox="0 0 46 46">
  <defs>
    <clipPath id="clip-path">
      <circle id="Ellipse_4" data-name="Ellipse 4" cx="23" cy="23" r="23" transform="translate(26 197)" fill="#487cf9"/>
    </clipPath>
  </defs>
  <g id="icon_iman" transform="translate(-26 -197)">
    <circle id="Ellipse_2" data-name="Ellipse 2" cx="23" cy="23" r="23" transform="translate(26 197)" fill="#487cf9"/>
    <g id="Mask_Group_6" data-name="Mask Group 6" clip-path="url(#clip-path)">
      <g id="religion" transform="translate(-19 203)">
        <path id="Path_229" data-name="Path 229" d="M81.536,12.731A2.418,2.418,0,0,1,79.575,15.1a2.413,2.413,0,0,1-4.733.042H70.681V27.1a2.414,2.414,0,0,1-.042,4.733,2.414,2.414,0,0,1-4.742,0,2.414,2.414,0,0,1-.042-4.733V15.145H61.694a2.413,2.413,0,0,1-4.733-.042,2.414,2.414,0,0,1,0-4.741,2.414,2.414,0,0,1,4.733-.043h4.161V6.694A2.414,2.414,0,0,1,65.9,1.961,2.419,2.419,0,0,1,67.2.249h0A2.387,2.387,0,0,1,68.268,0a2.418,2.418,0,0,1,2.371,1.961,2.414,2.414,0,0,1,.042,4.733v3.624h4.161a2.414,2.414,0,0,1,4.733.043,2.417,2.417,0,0,1,1.961,2.37Z" fill="#ffe8a7"/>
        <path id="Path_230" data-name="Path 230" d="M245.629,10.361a2.414,2.414,0,0,0-4.733-.043h-4.161V6.694a2.414,2.414,0,0,0-.042-4.733A2.418,2.418,0,0,0,234.322,0a2.387,2.387,0,0,0-1.065.249,2,2,0,0,1,2.3,1.928,1.155,1.155,0,0,0,.918.919,1.258,1.258,0,0,1,.022,2.467,1.156,1.156,0,0,0-.919,1.131v3.624a1.155,1.155,0,0,0,1.155,1.155h6.335a1.258,1.258,0,1,1,0,2.516h-6.335a1.155,1.155,0,0,0-1.155,1.155V27.1a1.156,1.156,0,0,0,.919,1.131,1.258,1.258,0,0,1-.022,2.467,1.155,1.155,0,0,0-.918.919c-.113.592-.4,1.626-2.768,1.626a2.412,2.412,0,0,0,3.9-1.411,2.414,2.414,0,0,0,.042-4.733V15.145H240.9a2.413,2.413,0,0,0,4.733-.042,2.414,2.414,0,0,0,0-4.741Z" transform="translate(-166.054 0)" fill="#ffd469"/>
        <g id="Group_104" data-name="Group 104" transform="translate(56.985 1.975)">
          <path id="Path_231" data-name="Path 231" d="M249,32.85a.5.5,0,0,0,.5-.5V30.412a.5.5,0,1,0-.99,0v1.943A.5.5,0,0,0,249,32.85Z" transform="translate(-237.712 -29.917)" fill="#ffba4c"/>
          <path id="Path_232" data-name="Path 232" d="M249,438.143a.5.5,0,0,0-.5.5v1.943a.5.5,0,1,0,.99,0v-1.943A.5.5,0,0,0,249,438.143Z" transform="translate(-237.712 -411.196)" fill="#ffba4c"/>
          <path id="Path_233" data-name="Path 233" d="M157.857,95.519h-6.436V89.664a.5.5,0,1,0-.99,0v5.855H144a.5.5,0,1,0,0,.99h6.436v14.214a.5.5,0,1,0,.99,0V96.51h6.436a.5.5,0,0,0,0-.99Z" transform="translate(-139.643 -85.258)" fill="#ffba4c"/>
          <path id="Path_234" data-name="Path 234" d="M87.51,185.373H85.567a.5.5,0,1,0,0,.99H87.51a.5.5,0,1,0,0-.99Z" transform="translate(-85.072 -175.111)" fill="#ffba4c"/>
          <path id="Path_235" data-name="Path 235" d="M385.6,185.373h-1.943a.5.5,0,0,0,0,.99H385.6a.5.5,0,0,0,0-.99Z" transform="translate(-363.484 -175.111)" fill="#ffba4c"/>
        </g>
      </g>
    </g>
  </g>
</svg>
