<svg xmlns="http://www.w3.org/2000/svg" xmlns:xlink="http://www.w3.org/1999/xlink" width="46" height="46" viewBox="0 0 46 46">
  <defs>
    <clipPath id="clip-path">
      <circle id="Ellipse_3" data-name="Ellipse 3" cx="23" cy="23" r="23" transform="translate(26 197)" fill="#487cf9"/>
    </clipPath>
  </defs>
  <g id="icon_perkawinan" transform="translate(-26 -197)">
    <circle id="Ellipse_2" data-name="Ellipse 2" cx="23" cy="23" r="23" transform="translate(26 197)" fill="#487cf9"/>
    <g id="Mask_Group_2" data-name="Mask Group 2" clip-path="url(#clip-path)">
      <g id="parents" transform="translate(29 202)">
        <g id="Group_5" data-name="Group 5" transform="translate(24.665 8.826)">
          <g id="Group_4" data-name="Group 4" transform="translate(0)">
            <path id="Path_1" data-name="Path 1" d="M294.266,130.285V132.4l6,8.351,1.676-7.571-1.676-9.148A6.257,6.257,0,0,0,294.266,130.285Z" transform="translate(-294.266 -124.027)" fill="#ca6b35"/>
            <path id="Path_2" data-name="Path 2" d="M371.8,123.955h-5.735c-.088,0-.175,0-.261.007v16.719h12.254V130.213A6.258,6.258,0,0,0,371.8,123.955Z" transform="translate(-359.808 -123.955)" fill="#9d542c"/>
          </g>
          <path id="Path_3" data-name="Path 3" d="M297.623,195.027h-3.358v2.355a6,6,0,0,0,6,6l1.676-4.416-1.676-6.574A2.638,2.638,0,0,1,297.623,195.027Z" transform="translate(-294.265 -186.653)" fill="#f2bb88"/>
          <path id="Path_4" data-name="Path 4" d="M368.442,195.028a2.638,2.638,0,0,1-2.638-2.638v10.989a6,6,0,0,0,6-6v-2.355Z" transform="translate(-359.808 -186.654)" fill="#e3a76f"/>
        </g>
        <g id="Group_8" data-name="Group 8" transform="translate(4.228 10.161)">
          <g id="Group_6" data-name="Group 6" transform="translate(0 4.445)">
            <path id="Path_5" data-name="Path 5" d="M50.446,209.939v2.351a5.987,5.987,0,0,0,5.987,5.987l1.676-4.827-1.676-4.827Z" transform="translate(-50.446 -207.305)" fill="#c38778"/>
            <path id="Path_6" data-name="Path 6" d="M121.869,194.227v9.655a5.987,5.987,0,0,0,5.987-5.987V192.91Z" transform="translate(-115.882 -192.91)" fill="#b46e5a"/>
          </g>
          <g id="Group_7" data-name="Group 7">
            <path id="Path_7" data-name="Path 7" d="M53.546,140.063a3.124,3.124,0,0,0-3.1,3.124v3.927h5.987l1.676-3.532-1.676-3.532Z" transform="translate(-50.446 -140.035)" fill="#464141"/>
            <path id="Path_8" data-name="Path 8" d="M124.717,139.884l-2.848.014v7.065h2.863a3.124,3.124,0,0,0,3.124-3.124v-.831A3.124,3.124,0,0,0,124.717,139.884Z" transform="translate(-115.882 -139.884)" fill="#2d2d2d"/>
          </g>
        </g>
        <g id="Group_9" data-name="Group 9" transform="translate(14.312 3)">
          <path id="Path_9" data-name="Path 9" d="M193.414,1.462a3.108,3.108,0,0,0-5.724,1.681s-.258,3.392,5.725,7.273l1.676-5.191-1.676-3.764h0Z" transform="translate(-187.689 -0.03)" fill="#dd4e4e"/>
          <path id="Path_10" data-name="Path 10" d="M261.728,3.106A3.108,3.108,0,0,0,256,1.43v8.955l0,0c5.982-3.888,5.721-7.281,5.721-7.281Z" transform="translate(-250.278 0)" fill="#ae2d5e"/>
        </g>
        <g id="Group_10" data-name="Group 10" transform="translate(0 25.493)">
          <path id="Path_11" data-name="Path 11" d="M4.191,322.807A4.191,4.191,0,0,0,0,327v11.667H10.215l1.676-8.728-1.676-7.13Z" transform="translate(0 -322.807)" fill="#dd4e4e"/>
          <path id="Path_12" data-name="Path 12" d="M132.083,327a4.191,4.191,0,0,0-4.191-4.191h-6.024v15.858h10.215l1.676-7.544Z" transform="translate(-111.653 -322.807)" fill="#ae2d2d"/>
        </g>
        <g id="Group_11" data-name="Group 11" transform="translate(20.43 25.468)">
          <path id="Path_13" data-name="Path 13" d="M247.928,322.5a4.191,4.191,0,0,0-4.191,4.191v11.693h10.232l1.676-7.376-1.676-8.508Z" transform="translate(-243.737 -322.5)" fill="#f6df5a"/>
          <path id="Path_14" data-name="Path 14" d="M376.035,326.691a4.191,4.191,0,0,0-4.191-4.191H365.8v15.884h10.232Z" transform="translate(-355.573 -322.5)" fill="#dcc541"/>
        </g>
      </g>
    </g>
  </g>
</svg>
