<svg xmlns="http://www.w3.org/2000/svg" xmlns:xlink="http://www.w3.org/1999/xlink" width="46" height="46" viewBox="0 0 46 46">
  <defs>
    <clipPath id="clip-path">
      <circle id="Ellipse_4" data-name="Ellipse 4" cx="23" cy="23" r="23" transform="translate(26 197)" fill="#487cf9"/>
    </clipPath>
  </defs>
  <g id="icon_kitabsuci" transform="translate(-26 -197)">
    <circle id="Ellipse_2" data-name="Ellipse 2" cx="23" cy="23" r="23" transform="translate(26 197)" fill="#487cf9"/>
    <g id="Mask_Group_3" data-name="Mask Group 3" clip-path="url(#clip-path)">
      <g id="bible" transform="translate(-30.558 203.759)">
        <g id="Group_19" data-name="Group 19" transform="translate(66.558 0)">
          <g id="Group_15" data-name="Group 15" transform="translate(0.008)">
            <g id="Group_13" data-name="Group 13">
              <path id="Path_15" data-name="Path 15" d="M66.68,27.841V3.087A3.089,3.089,0,0,1,69.77,0H88.879a3.089,3.089,0,0,1,3.09,3.087V25.175l-.629,2.666Z" transform="translate(-66.68 0)" fill="#2b495d"/>
              <path id="Path_16" data-name="Path 16" d="M265.616,0h-9.555V27.841h12.015l.629-2.666V3.087A3.088,3.088,0,0,0,265.616,0Z" transform="translate(-243.417 0)" fill="#2b495d"/>
            </g>
            <g id="Group_14" data-name="Group 14" transform="translate(6.92 4.013)">
              <path id="Path_17" data-name="Path 17" d="M180.829,64.113h-2.774V61.049a.944.944,0,0,0-.944-.943h-2.125a.944.944,0,0,0-.944.943v3.064h-2.774a.944.944,0,0,0-.944.943V67.18a.944.944,0,0,0,.944.943h2.774v7.77a.944.944,0,0,0,.944.943h2.125a.944.944,0,0,0,.944-.943v-7.77h2.774a.944.944,0,0,0,.944-.943V65.057A.944.944,0,0,0,180.829,64.113Z" transform="translate(-170.324 -60.106)" fill="#e7aa60"/>
              <path id="Path_18" data-name="Path 18" d="M260.842,64.113h-2.774V61.049a.944.944,0,0,0-.944-.943h-1.063V76.837h1.063a.944.944,0,0,0,.944-.943v-7.77h2.774a.944.944,0,0,0,.944-.943V65.057A.944.944,0,0,0,260.842,64.113Z" transform="translate(-250.338 -60.106)" fill="#e7aa60"/>
            </g>
          </g>
          <g id="Group_18" data-name="Group 18" transform="translate(0 23.288)">
            <g id="Group_16" data-name="Group 16">
              <path id="Path_19" data-name="Path 19" d="M91.855,348.8H71.012a4.451,4.451,0,1,0,0,8.9H90.853a1,1,0,0,0,1-1v-.886l-.629-2.462.629-2.666V348.8Z" transform="translate(-66.558 -348.802)" fill="#182831"/>
              <path id="Path_20" data-name="Path 20" d="M268.705,348.8H256.061v8.9H267.7a1,1,0,0,0,1-1v-.886l-.629-2.462.629-2.666V348.8Z" transform="translate(-243.409 -348.802)" fill="#182831"/>
            </g>
            <g id="Group_17" data-name="Group 17" transform="translate(1.888 1.887)">
              <path id="Path_21" data-name="Path 21" d="M94.837,379.623a2.565,2.565,0,0,0,2.566,2.564h20.842v-5.129H97.4A2.565,2.565,0,0,0,94.837,379.623Z" transform="translate(-94.837 -377.059)" fill="#fbf4f4"/>
              <path id="Path_22" data-name="Path 22" d="M256.061,377.058h12.644v5.129H256.061Z" transform="translate(-245.297 -377.058)" fill="#eae0db"/>
            </g>
          </g>
        </g>
        <g id="Group_20" data-name="Group 20" transform="translate(71.807 27.672)">
          <path id="Path_23" data-name="Path 23" d="M148.417,420.855l-1.111-.751-1.111.751a.645.645,0,0,1-1.024-.53l0-5.2a.667.667,0,0,1,.667-.667h2.934a.668.668,0,0,1,.668.668l0,5.2a.645.645,0,0,1-1.024.53Z" transform="translate(-145.171 -414.459)" fill="#de5958"/>
          <path id="Path_24" data-name="Path 24" d="M178.605,414.459h-1.467l0,5.645,1.111.751a.645.645,0,0,0,1.024-.53l0-5.2A.667.667,0,0,0,178.605,414.459Z" transform="translate(-175.004 -414.459)" fill="#d9225b"/>
        </g>
      </g>
    </g>
  </g>
</svg>
