<svg xmlns="http://www.w3.org/2000/svg" xmlns:xlink="http://www.w3.org/1999/xlink" width="46" height="46" viewBox="0 0 46 46">
  <defs>
    <clipPath id="clip-path">
      <circle id="Ellipse_6" data-name="Ellipse 6" cx="23" cy="23" r="23" transform="translate(26 197)" fill="#487cf9"/>
    </clipPath>
  </defs>
  <g id="icon_keluarga" transform="translate(-26 -197)">
    <circle id="Ellipse_2" data-name="Ellipse 2" cx="23" cy="23" r="23" transform="translate(26 197)" fill="#487cf9"/>
    <g id="Mask_Group_4" data-name="Mask Group 4" clip-path="url(#clip-path)">
      <g id="family" transform="translate(9.56 202.929)">
        <g id="Group_21" data-name="Group 21" transform="translate(22.163 35.554)">
          <path id="Path_25" data-name="Path 25" d="M65.4,404.167h2.477v6.451H65.4Z" transform="translate(-65.402 -404.167)" fill="#ffdbb5"/>
          <path id="Path_26" data-name="Path 26" d="M93.556,404.167h2.477v6.451H93.556Z" transform="translate(-91.079 -404.167)" fill="#ffd1a1"/>
        </g>
        <g id="Group_54" data-name="Group 54" transform="translate(20.476 0)">
          <g id="Group_53" data-name="Group 53" transform="translate(0)">
            <g id="Group_30" data-name="Group 30" transform="translate(0 11.453)">
              <g id="Group_22" data-name="Group 22" transform="translate(0.236 30.108)">
                <path id="Path_27" data-name="Path 27" d="M49.983,474.6h2.852v-2.161H49.983a1.08,1.08,0,0,0,0,2.161Z" transform="translate(-48.903 -472.441)" fill="#cf8230"/>
                <path id="Path_28" data-name="Path 28" d="M96.46,474.6H93.608v-2.161H96.46a1.08,1.08,0,0,1,0,2.161Z" transform="translate(-89.675 -472.441)" fill="#cf8230"/>
              </g>
              <g id="Group_29" data-name="Group 29">
                <path id="Path_29" data-name="Path 29" d="M65.4,341.429h4.953v6.045H65.4Z" transform="translate(-63.715 -322.846)" fill="#cf8230"/>
                <g id="Group_27" data-name="Group 27" transform="translate(0 0)">
                  <g id="Group_25" data-name="Group 25" transform="translate(1.056)">
                    <g id="Group_24" data-name="Group 24">
                      <g id="Group_23" data-name="Group 23">
                        <path id="Path_30" data-name="Path 30" d="M61.338,130.191a3.107,3.107,0,0,0-3.107,3.107v3.984a3.1,3.1,0,0,0,3.1,3.09h.009a3.1,3.1,0,0,0,3.1-3.09V133.3A3.108,3.108,0,0,0,61.338,130.191Z" transform="translate(-58.231 -130.191)" fill="#ffdbb5"/>
                      </g>
                    </g>
                  </g>
                  <path id="Path_31" data-name="Path 31" d="M79.876,130.191a3.1,3.1,0,0,0-1.32.294,3.107,3.107,0,0,1,1.788,2.814v3.984a3.089,3.089,0,0,1-1.788,2.8,3.1,3.1,0,0,0,1.315.291h.009a3.1,3.1,0,0,0,3.1-3.09V133.3a3.108,3.108,0,0,0-3.107-3.108Z" transform="translate(-75.712 -130.191)" fill="#ffd1a1"/>
                  <path id="Path_32" data-name="Path 32" d="M54.551,254.273H46.224v-5.539a2.867,2.867,0,0,1,2.867-2.867h2.593a2.867,2.867,0,0,1,2.867,2.867Z" transform="translate(-46.224 -235.69)" fill="#2ae88f"/>
                  <g id="Group_26" data-name="Group 26" transform="translate(0 13.568)">
                    <path id="Path_33" data-name="Path 33" d="M47.3,291.964h0a1.072,1.072,0,0,1-1.072-1.072v-6.47h2.149v6.47A1.072,1.072,0,0,1,47.3,291.964Z" transform="translate(-46.225 -284.421)" fill="#ffdbb5"/>
                    <path id="Path_34" data-name="Path 34" d="M117.535,291.964h0a1.072,1.072,0,0,1-1.072-1.072v-6.47h2.149v6.47A1.072,1.072,0,0,1,117.535,291.964Z" transform="translate(-110.28 -284.421)" fill="#ffdbb5"/>
                  </g>
                </g>
                <path id="Path_35" data-name="Path 35" d="M87.376,370.269v-3.186a.66.66,0,1,0-1.32,0v3.186Z" transform="translate(-82.552 -345.642)" fill="#b5630b"/>
                <path id="Path_36" data-name="Path 36" d="M64.636,134.671H63.543l-1.04-1.109-.974,1.109H58.439v-1.386a3.094,3.094,0,0,1,3.094-3.094h.009a3.094,3.094,0,0,1,3.094,3.094v1.386Z" transform="translate(-57.364 -130.191)" fill="#1c2a58"/>
                <g id="Group_28" data-name="Group 28" transform="translate(2.853)">
                  <path id="Path_37" data-name="Path 37" d="M79.984,130.191h-.009a3.079,3.079,0,0,0-1.315.293,3.093,3.093,0,0,1,1.779,2.8v.853l.506-.576,1.04,1.11h1.093v-1.386A3.094,3.094,0,0,0,79.984,130.191Z" transform="translate(-78.66 -130.191)" fill="#0c1637"/>
                </g>
              </g>
            </g>
            <g id="Group_36" data-name="Group 36" transform="translate(10.743)">
              <g id="Group_34" data-name="Group 34" transform="translate(0.594)">
                <path id="Path_38" data-name="Path 38" d="M183.7,6.788l-8.611-.129V3.392A3.392,3.392,0,0,1,178.482,0h1.828A3.392,3.392,0,0,1,183.7,3.392Z" transform="translate(-175.09 0)" fill="#1c2a58"/>
                <path id="Path_39" data-name="Path 39" d="M211.267,0h-1.828a3.428,3.428,0,0,0-.406.025,3.391,3.391,0,0,1,2.986,3.367v4.67h2.639V3.391A3.391,3.391,0,0,0,211.267,0Z" transform="translate(-206.047 0)" fill="#0c1637"/>
                <g id="Group_33" data-name="Group 33" transform="translate(0 3.895)">
                  <g id="Group_32" data-name="Group 32">
                    <g id="Group_31" data-name="Group 31">
                      <path id="Path_40" data-name="Path 40" d="M175.09,47.046v1.868a4.291,4.291,0,0,0,4.3,4.282h.012a4.291,4.291,0,0,0,4.3-4.282V44.282h-1.746a2.371,2.371,0,0,0-1.921.956C179.453,46.037,178.118,47.046,175.09,47.046Z" transform="translate(-175.09 -44.282)" fill="#ffdbb5"/>
                    </g>
                  </g>
                </g>
                <path id="Path_41" data-name="Path 41" d="M212.912,44.282a2.443,2.443,0,0,0-.893.169v4.463a4.285,4.285,0,0,1-2.986,4.078,4.311,4.311,0,0,0,1.313.2h.012a4.291,4.291,0,0,0,4.3-4.282V44.282Z" transform="translate(-206.047 -40.387)" fill="#ffd1a1"/>
              </g>
              <path id="Path_42" data-name="Path 42" d="M193.821,275.25h-2.914V292.6h5.828V275.25Z" transform="translate(-188.922 -251.036)" fill="#a6d4ff"/>
              <path id="Path_43" data-name="Path 43" d="M178.14,157.117h-9.8V149.1a3.374,3.374,0,0,1,3.374-3.374h3.051a3.374,3.374,0,0,1,3.374,3.374v8.021Z" transform="translate(-168.342 -132.903)" fill="#ffd52b"/>
              <path id="Path_44" data-name="Path 44" d="M169.609,207.954H169.6a1.262,1.262,0,0,1-1.262-1.262v-9.116h2.529v9.116A1.262,1.262,0,0,1,169.609,207.954Z" transform="translate(-168.342 -180.195)" fill="#ffdbb5"/>
              <path id="Path_45" data-name="Path 45" d="M252.247,207.954h-.005a1.262,1.262,0,0,1-1.262-1.262v-9.116h2.529v9.116A1.262,1.262,0,0,1,252.247,207.954Z" transform="translate(-243.71 -180.195)" fill="#ffdbb5"/>
              <g id="Group_35" data-name="Group 35" transform="translate(0.29 41.561)">
                <path id="Path_46" data-name="Path 46" d="M172.718,474.6h3.529v-2.161h-3.529a1.08,1.08,0,0,0,0,2.161Z" transform="translate(-171.638 -472.441)" fill="#5d76cf"/>
                <path id="Path_47" data-name="Path 47" d="M227.562,474.6h-3.529v-2.161h3.529a1.08,1.08,0,0,1,0,2.161Z" transform="translate(-219.424 -472.441)" fill="#5d76cf"/>
              </g>
              <path id="Path_48" data-name="Path 48" d="M217.853,327.157V313.8a.66.66,0,1,0-1.32,0v13.354Z" transform="translate(-212.294 -285.597)" fill="#79b7f2"/>
            </g>
            <g id="Group_43" data-name="Group 43" transform="translate(22.713 0)">
              <circle id="Ellipse_5" data-name="Ellipse 5" cx="5.366" cy="5.366" r="5.366" fill="#1c2a58"/>
              <path id="Path_49" data-name="Path 49" d="M351.736,0a5.373,5.373,0,0,0-1.32.164,5.367,5.367,0,0,1,0,10.4A5.366,5.366,0,1,0,351.736,0Z" transform="translate(-346.369)" fill="#0c1637"/>
              <g id="Group_42" data-name="Group 42" transform="translate(0.467 4.33)">
                <g id="Group_40" data-name="Group 40" transform="translate(1.139)">
                  <g id="Group_39" data-name="Group 39">
                    <g id="Group_38" data-name="Group 38">
                      <g id="Group_37" data-name="Group 37">
                        <path id="Path_50" data-name="Path 50" d="M325.279,49.217a2.611,2.611,0,0,0-2.611,2.611v2.129a3.747,3.747,0,0,0,3.755,3.74h.011a3.748,3.748,0,0,0,3.755-3.74V51.828a2.611,2.611,0,0,0-2.611-2.611Z" transform="translate(-322.668 -49.217)" fill="#edb374"/>
                      </g>
                    </g>
                  </g>
                </g>
                <path id="Path_51" data-name="Path 51" d="M352.885,49.217h-2.3c-.057,0-.114,0-.17.006a2.611,2.611,0,0,1,2.441,2.605v2.129a3.742,3.742,0,0,1-2.441,3.5,3.759,3.759,0,0,0,1.314.236h.011a3.747,3.747,0,0,0,3.755-3.74V51.828A2.611,2.611,0,0,0,352.885,49.217Z" transform="translate(-346.836 -49.217)" fill="#e3a35d"/>
                <path id="Path_52" data-name="Path 52" d="M335.2,275.25h-2.914V292.6h5.828V275.25Z" transform="translate(-330.304 -255.366)" fill="#a6d4ff"/>
                <path id="Path_53" data-name="Path 53" d="M319.522,157.117h-9.8V149.1a3.374,3.374,0,0,1,3.374-3.374h3.05a3.374,3.374,0,0,1,3.374,3.374Z" transform="translate(-309.724 -137.232)" fill="#ff428e"/>
                <path id="Path_54" data-name="Path 54" d="M310.992,207.954h-.005a1.262,1.262,0,0,1-1.262-1.262v-9.116h2.529v9.116A1.262,1.262,0,0,1,310.992,207.954Z" transform="translate(-309.725 -184.525)" fill="#edb374"/>
                <g id="Group_41" data-name="Group 41" transform="translate(0.29 37.231)">
                  <path id="Path_55" data-name="Path 55" d="M314.1,474.6h5.231v-2.161H314.1a1.08,1.08,0,0,0,0,2.161Z" transform="translate(-313.02 -472.441)" fill="#ff428e"/>
                </g>
              </g>
            </g>
            <g id="Group_52" data-name="Group 52" transform="translate(27.921 17.673)">
              <g id="Group_50" data-name="Group 50">
                <path id="Path_56" data-name="Path 56" d="M368.988,211.963a4.047,4.047,0,0,1-4.047-4.047v-2.979a4.041,4.041,0,0,1,4.041-4.041h.012a4.041,4.041,0,0,1,4.041,4.041v2.979A4.047,4.047,0,0,1,368.988,211.963Z" transform="translate(-364.824 -200.897)" fill="#1c2a58"/>
                <path id="Path_57" data-name="Path 57" d="M397.27,200.9h-.012a4.034,4.034,0,0,0-1.313.219,4.042,4.042,0,0,1,2.727,3.821v2.979a4.048,4.048,0,0,1-2.727,3.826,4.047,4.047,0,0,0,5.366-3.826v-2.979A4.041,4.041,0,0,0,397.27,200.9Z" transform="translate(-393.1 -200.897)" fill="#0c1637"/>
                <g id="Group_49" data-name="Group 49" transform="translate(0 4.053)">
                  <g id="Group_44" data-name="Group 44" transform="translate(1.687 14.591)">
                    <path id="Path_58" data-name="Path 58" d="M382.791,412.833h2.477v5.689h-2.477Z" transform="translate(-382.791 -412.833)" fill="#ffdbb5"/>
                    <path id="Path_59" data-name="Path 59" d="M410.944,412.833h2.477v5.689h-2.477Z" transform="translate(-408.467 -412.833)" fill="#ffd1a1"/>
                  </g>
                  <g id="Group_47" data-name="Group 47" transform="translate(1.861)">
                    <g id="Group_46" data-name="Group 46">
                      <g id="Group_45" data-name="Group 45">
                        <path id="Path_60" data-name="Path 60" d="M384.767,246.968V248.9a2.3,2.3,0,0,0,2.3,2.29h.007a2.3,2.3,0,0,0,2.3-2.29v-1.935Z" transform="translate(-384.767 -246.968)" fill="#ffdbb5"/>
                      </g>
                    </g>
                  </g>
                  <path id="Path_61" data-name="Path 61" d="M399.006,246.968V248.9a2.287,2.287,0,0,1-1.151,1.984,2.3,2.3,0,0,0,1.148.306h.007a2.3,2.3,0,0,0,2.3-2.29v-1.935Z" transform="translate(-394.843 -246.968)" fill="#ffd1a1"/>
                  <path id="Path_62" data-name="Path 62" d="M369.073,295.866H366.48a2.868,2.868,0,0,0-2.867,2.867v3.78H365.3V306.8h4.953v-4.285h1.687v-3.78A2.867,2.867,0,0,0,369.073,295.866Z" transform="translate(-363.613 -291.564)" fill="#ffd52b"/>
                  <g id="Group_48" data-name="Group 48" transform="translate(0 7.693)">
                    <path id="Path_63" data-name="Path 63" d="M364.691,340.2h0a1.072,1.072,0,0,1-1.072-1.072v-4.711h2.149v4.711A1.073,1.073,0,0,1,364.691,340.2Z" transform="translate(-363.614 -334.421)" fill="#ffdbb5"/>
                    <path id="Path_64" data-name="Path 64" d="M434.923,340.2h0a1.072,1.072,0,0,1-1.072-1.072v-4.711H436v4.711A1.072,1.072,0,0,1,434.923,340.2Z" transform="translate(-427.668 -334.421)" fill="#ffdbb5"/>
                  </g>
                </g>
              </g>
              <g id="Group_51" data-name="Group 51" transform="translate(0.236 23.888)">
                <path id="Path_65" data-name="Path 65" d="M367.372,474.6h2.852v-2.161h-2.852a1.08,1.08,0,0,0,0,2.161Z" transform="translate(-366.292 -472.441)" fill="#a6d4ff"/>
                <path id="Path_66" data-name="Path 66" d="M413.849,474.6H411v-2.161h2.852a1.08,1.08,0,0,1,0,2.161Z" transform="translate(-407.064 -472.441)" fill="#a6d4ff"/>
              </g>
            </g>
          </g>
        </g>
      </g>
    </g>
  </g>
</svg>
