<svg xmlns="http://www.w3.org/2000/svg" width="119.92" height="120.061" viewBox="0 0 119.92 120.061">
  <g id="logo_no_text" data-name="logo no text" transform="translate(-36 -9.76)">
    <g id="LOGO" transform="translate(36 9.76)">
      <g id="church_logo" data-name="church logo">
        <path id="Path_8" data-name="Path 8" d="M210.655,36.373V18.2h11.351V10.387H210.655V0h-7.834V10.387H191.469V18.2h11.352V36.373" transform="translate(-146.641)" fill="#f1c400"/>
        <path id="Path_9" data-name="Path 9" d="M129.041,289.352v29.106H16.911V289.352l5.6-5.742,15.974-7.065,10.5-4.645,45.217-1.78,32.476,12.991.671,1.779Z" transform="translate(-13.016 -206.779)" fill="#dfe1e9"/>
        <path id="Path_10" data-name="Path 10" d="M191.424,167.482v60.454H134.386V167.482l6.725-6.777,5.056-5.093,15.44-3.512,1.048-.238,8.1,2.986,10.883,4.011,3.872,2.183,5.871,3.311Z" transform="translate(-102.944 -116.252)" fill="#e6eff6"/>
        <path id="Path_11" data-name="Path 11" d="M223.19,357.475h-.749a10.117,10.117,0,0,0-10.117,10.117v17.736h20.984V367.592A10.118,10.118,0,0,0,223.19,357.475Z" transform="translate(-162.605 -273.649)" fill="#9e7c59"/>
        <path id="Path_12" data-name="Path 12" d="M191.424,166.475v4.936l-28.514-11.97-28.524,11.975v-4.941l6.725-6.777,20.5-8.6,1.3-.546,7.846,3.294,14.755,6.194,5.871,3.311Z" transform="translate(-102.944 -115.245)" fill="#ced6db"/>
        <path id="Path_13" data-name="Path 13" d="M116.465,152.129l32.725-13.74,32.726,13.74v-8.893L149.19,129.5l-32.725,13.74Z" transform="translate(-89.225 -99.13)" fill="#252668"/>
        <g id="Group_7" data-name="Group 7" transform="translate(3.895 67.263)">
          <path id="Path_14" data-name="Path 14" d="M44.458,286.841v8.894L16.911,307.291v-5.14l5.6-5.741,15.974-7.065Z" transform="translate(-16.911 -286.841)" fill="#ced6db"/>
          <path id="Path_15" data-name="Path 15" d="M405.168,302.152v5.14l-27.545-11.556v-8.894l25.861,10.849Z" transform="translate(-293.038 -286.841)" fill="#ced6db"/>
        </g>
        <g id="Group_8" data-name="Group 8" transform="translate(0.005 62.122)">
          <path id="Path_16" data-name="Path 16" d="M31.76,273.814.324,287v-8.894l31.436-13.19" transform="translate(-0.324 -264.921)" fill="#252668"/>
          <path id="Path_17" data-name="Path 17" d="M377.618,264.921l31.437,13.19V287l-31.437-13.19" transform="translate(-289.145 -264.921)" fill="#252668"/>
        </g>
        <g id="Group_9" data-name="Group 9" transform="translate(11.899 52.807)">
          <path id="Path_18" data-name="Path 18" d="M57.42,365.825h-.439a5.934,5.934,0,0,0-5.934,5.934v10.4H63.354v-10.4A5.934,5.934,0,0,0,57.42,365.825Z" transform="translate(-51.047 -332.848)" fill="#7a7272"/>
          <path id="Path_19" data-name="Path 19" d="M414.845,365.825h-.439a5.934,5.934,0,0,0-5.934,5.934v10.4h12.307v-10.4A5.934,5.934,0,0,0,414.845,365.825Z" transform="translate(-324.657 -332.848)" fill="#7a7272"/>
          <path id="Path_171" data-name="Path 171" d="M57.42,365.825h-.439a5.934,5.934,0,0,0-5.934,5.934v10.4H63.354v-10.4A5.934,5.934,0,0,0,57.42,365.825Z" transform="translate(-10.741 -365.825)" fill="#7a7272"/>
        </g>
        <g id="Group_10" data-name="Group 10" transform="translate(10.064 50.971)">
          <path id="Path_20" data-name="Path 20" d="M57.362,378.005H45.055a1.836,1.836,0,0,1-1.836-1.836v-10.4A7.778,7.778,0,0,1,50.988,358h.439a7.778,7.778,0,0,1,7.769,7.769v10.4A1.835,1.835,0,0,1,57.362,378.005ZM46.89,374.334h8.636v-8.567a4.1,4.1,0,0,0-4.1-4.1h-.439a4.1,4.1,0,0,0-4.1,4.1S46.89,374.334,46.89,374.334Z" transform="translate(-43.219 -325.021)" fill="#7c5c40"/>
          <path id="Path_21" data-name="Path 21" d="M414.786,378.005H402.479a1.835,1.835,0,0,1-1.835-1.836v-10.4A7.778,7.778,0,0,1,408.412,358h.439a7.778,7.778,0,0,1,7.769,7.769v10.4A1.835,1.835,0,0,1,414.786,378.005Zm-10.472-3.671h8.636v-8.567a4.1,4.1,0,0,0-4.1-4.1h-.439a4.1,4.1,0,0,0-4.1,4.1v8.567Z" transform="translate(-316.829 -325.021)" fill="#7c5c40"/>
          <path id="Path_168" data-name="Path 168" d="M414.786,378.005H402.479a1.835,1.835,0,0,1-1.835-1.836v-10.4A7.778,7.778,0,0,1,408.412,358h.439a7.778,7.778,0,0,1,7.769,7.769v10.4A1.835,1.835,0,0,1,414.786,378.005Zm-10.472-3.671h8.636v-8.567a4.1,4.1,0,0,0-4.1-4.1h-.439a4.1,4.1,0,0,0-4.1,4.1v8.567Z" transform="translate(-316.829 -325.021)" fill="#7c5c40"/>
          <path id="Path_170" data-name="Path 170" d="M57.362,378.005H45.055a1.836,1.836,0,0,1-1.836-1.836v-10.4A7.778,7.778,0,0,1,50.988,358h.439a7.778,7.778,0,0,1,7.769,7.769v10.4A1.835,1.835,0,0,1,57.362,378.005ZM46.89,374.334h8.636v-8.567a4.1,4.1,0,0,0-4.1-4.1h-.439a4.1,4.1,0,0,0-4.1,4.1S46.89,374.334,46.89,374.334Z" transform="translate(-1.985 -357.998)" fill="#7c5c40"/>
        </g>
        <g id="Group_14" data-name="Group 14" transform="translate(47.882 81.99)">
          <path id="Path_30" data-name="Path 30" d="M229.149,381.785h-3.671V361.6a8.291,8.291,0,0,0-8.282-8.282h-.75a8.291,8.291,0,0,0-8.282,8.282v20.184h-3.671V361.6a11.966,11.966,0,0,1,11.953-11.953h.75A11.966,11.966,0,0,1,229.149,361.6Z" transform="translate(-204.494 -349.648)" fill="#7c5c40"/>
        </g>
        <path id="Path_31" data-name="Path 31" d="M117.67,475.753H2.854A2.552,2.552,0,0,0,.3,478.305v5.948h119.92v-5.948A2.552,2.552,0,0,0,117.67,475.753Z" transform="translate(-0.302 -364.192)" fill="#423e3e"/>
      </g>
    </g>
  </g>
</svg>
